<svg width="53" height="59" viewBox="0 0 53 59" fill="none" xmlns="http://www.w3.org/2000/svg">
<g id="Map Pin 6">
<g id="Ellipse 13" filter="url(#filter0_f_2278_46061)">
<path d="M20.6709 55.6627C12.0719 53.7648 17.8734 15.1067 18.6102 12.2225C19.3471 9.33834 26.9152 8.53878 35.5142 10.4366C44.1131 12.3345 50.4867 16.2111 49.7499 19.0953C49.013 21.9795 29.2698 57.5605 20.6709 55.6627Z" fill="url(#paint0_linear_2278_46061)" fill-opacity="0.8"/>
</g>
<path id="Subtract" fill-rule="evenodd" clip-rule="evenodd" d="M20 56C26.6667 56 40 25.0067 40 16.1096C40 7.21251 31.0457 0 20 0C8.95431 0 0 7.21251 0 16.1096C0 25.0067 13.3333 56 20 56ZM20.5301 23.6303C24.8053 23.6303 28.271 20.4266 28.271 16.4747C28.271 12.5228 24.8053 9.31919 20.5301 9.31919C16.255 9.31919 12.7892 12.5228 12.7892 16.4747C12.7892 20.4266 16.255 23.6303 20.5301 23.6303Z" fill="#1B4C8B"/>
<path id="Subtract_2" fill-rule="evenodd" clip-rule="evenodd" d="M20.0514 54.0916C26.2789 54.0916 38.7337 24.8593 38.7337 16.4677C38.7337 8.07614 30.3694 1.27344 20.0514 1.27344C9.73349 1.27344 1.36914 8.07614 1.36914 16.4677C1.36914 24.8593 13.824 54.0916 20.0514 54.0916ZM20.246 24.7884C25.2975 24.7884 29.3926 20.9821 29.3926 16.2868C29.3926 11.5915 25.2975 7.78527 20.246 7.78527C15.1946 7.78527 11.0995 11.5915 11.0995 16.2868C11.0995 20.9821 15.1946 24.7884 20.246 24.7884Z" fill="#93C6FD"/>
<path id="Subtract_3" fill-rule="evenodd" clip-rule="evenodd" d="M19.2997 53.9626C12.7697 50.1028 2.14757 24.5791 2.14757 16.8295C2.14757 8.43791 10.5119 1.63521 20.8299 1.63521C24.0374 1.63521 27.0562 2.29264 29.6936 3.45085C26.8788 2.06871 23.5793 1.27344 20.0514 1.27344C9.73349 1.27344 1.36914 8.07614 1.36914 16.4677C1.36914 24.5337 12.8765 51.855 19.2997 53.9626ZM29.3926 16.2868C29.3926 20.9821 25.2975 24.7884 20.246 24.7884C18.9323 24.7884 17.6832 24.5309 16.554 24.0673C17.8758 24.7569 19.4007 25.1502 21.0243 25.1502C26.0758 25.1502 30.1709 21.3439 30.1709 16.6486C30.1709 13.1745 27.9289 10.187 24.7164 8.8681C27.507 10.324 29.3926 13.1007 29.3926 16.2868Z" fill="#C1DDFC"/>
</g>
<defs>
<filter id="filter0_f_2278_46061" x="13.0137" y="6.40625" width="39.7949" height="52.3301" filterUnits="userSpaceOnUse" color-interpolation-filters="sRGB">
<feFlood flood-opacity="0" result="BackgroundImageFix"/>
<feBlend mode="normal" in="SourceGraphic" in2="BackgroundImageFix" result="shape"/>
<feGaussianBlur stdDeviation="1.5" result="effect1_foregroundBlur_2278_46061"/>
</filter>
<linearGradient id="paint0_linear_2278_46061" x1="35.5142" y1="10.4366" x2="25.3066" y2="56.6858" gradientUnits="userSpaceOnUse">
<stop stop-color="#7E7B7B" stop-opacity="0"/>
<stop offset="0.745" stop-color="#1C1B1B" stop-opacity="0.96"/>
<stop offset="1" stop-color="#181717"/>
</linearGradient>
</defs>
</svg>
