<svg width="16" height="16" viewBox="0 0 16 16" fill="none" xmlns="http://www.w3.org/2000/svg">
<g id="Frame">
<path id="Vector" d="M7.33398 12.334H8.66732V9.66732H11.334V8.33398H8.66732V5.66732H7.33398V8.33398H4.66732V9.66732H7.33398V12.334ZM8.00065 15.6673C7.07843 15.6673 6.21176 15.4923 5.40065 15.1423C4.58954 14.7923 3.88398 14.3173 3.28398 13.7173C2.68398 13.1173 2.20898 12.4118 1.85898 11.6007C1.50898 10.7895 1.33398 9.92287 1.33398 9.00065C1.33398 8.07843 1.50898 7.21176 1.85898 6.40065C2.20898 5.58954 2.68398 4.88398 3.28398 4.28398C3.88398 3.68398 4.58954 3.20898 5.40065 2.85898C6.21176 2.50898 7.07843 2.33398 8.00065 2.33398C8.92287 2.33398 9.78954 2.50898 10.6007 2.85898C11.4118 3.20898 12.1173 3.68398 12.7173 4.28398C13.3173 4.88398 13.7923 5.58954 14.1423 6.40065C14.4923 7.21176 14.6673 8.07843 14.6673 9.00065C14.6673 9.92287 14.4923 10.7895 14.1423 11.6007C13.7923 12.4118 13.3173 13.1173 12.7173 13.7173C12.1173 14.3173 11.4118 14.7923 10.6007 15.1423C9.78954 15.4923 8.92287 15.6673 8.00065 15.6673ZM8.00065 14.334C9.48954 14.334 10.7507 13.8173 11.784 12.784C12.8173 11.7507 13.334 10.4895 13.334 9.00065C13.334 7.51176 12.8173 6.25065 11.784 5.21732C10.7507 4.18398 9.48954 3.66732 8.00065 3.66732C6.51176 3.66732 5.25065 4.18398 4.21732 5.21732C3.18398 6.25065 2.66732 7.51176 2.66732 9.00065C2.66732 10.4895 3.18398 11.7507 4.21732 12.784C5.25065 13.8173 6.51176 14.334 8.00065 14.334Z" fill="white"/>
</g>
</svg>
