<svg width="21" height="20" viewBox="0 0 21 20" fill="none" xmlns="http://www.w3.org/2000/svg">
<path d="M15.7003 11.0873L11.1902 15.8121C11.0559 15.9463 10.8949 16 10.7338 16C10.5459 16 10.3848 15.9463 10.2506 15.8121L5.74049 11.0873C5.49887 10.8188 5.49887 10.4161 5.76733 10.1745C6.00894 9.9329 6.43847 9.9329 6.68008 10.2014L10.0895 13.7718V4.64429C10.0895 4.26846 10.3579 4 10.7069 4C11.0291 4 11.3781 4.26846 11.3781 4.64429V13.7718L14.7606 10.2014C15.0022 9.9329 15.4318 9.9329 15.6734 10.1745C15.9418 10.4161 15.9418 10.8188 15.7003 11.0873Z" fill="#2D2D2D"/>
</svg>
