<svg width="33" height="38" viewBox="0 0 33 38" fill="none" xmlns="http://www.w3.org/2000/svg">
<g id="Map Pin 8">
<g id="Ellipse 13" filter="url(#filter0_f_2278_69217)">
<path d="M12.5325 34.9538C7.51841 33.762 10.9013 9.48565 11.331 7.67445C11.7606 5.86325 16.1736 5.36114 21.1877 6.55296C26.2019 7.74478 29.9183 10.1792 29.4887 11.9904C29.059 13.8016 17.5466 36.1456 12.5325 34.9538Z" fill="url(#paint0_linear_2278_69217)" fill-opacity="0.8"/>
</g>
<path id="Subtract" fill-rule="evenodd" clip-rule="evenodd" d="M12.1406 35.1667C16.028 35.1667 23.8028 15.7036 23.8028 10.1164C23.8028 4.52928 18.5815 0 12.1406 0C5.69983 0 0.478516 4.52928 0.478516 10.1164C0.478516 15.7036 8.25327 35.1667 12.1406 35.1667ZM12.4498 14.8393C14.9427 14.8393 16.9635 12.8274 16.9635 10.3457C16.9635 7.86404 14.9427 5.85223 12.4498 5.85223C9.95689 5.85223 7.936 7.86404 7.936 10.3457C7.936 12.8274 9.95689 14.8393 12.4498 14.8393Z" fill="#1B4C8B"/>
<path id="Subtract_2" fill-rule="evenodd" clip-rule="evenodd" d="M12.1711 33.9674C15.8024 33.9674 23.0649 15.6102 23.0649 10.3405C23.0649 5.07077 18.1876 0.798828 12.1711 0.798828C6.15465 0.798828 1.27734 5.07077 1.27734 10.3405C1.27734 15.6102 8.53985 33.9674 12.1711 33.9674ZM12.2846 15.5657C15.2301 15.5657 17.618 13.1754 17.618 10.2269C17.618 7.27835 15.2301 4.8881 12.2846 4.8881C9.33903 4.8881 6.95118 7.27835 6.95118 10.2269C6.95118 13.1754 9.33903 15.5657 12.2846 15.5657Z" fill="#3470B1"/>
<path id="Subtract_3" fill-rule="evenodd" clip-rule="evenodd" d="M11.7328 33.8864C7.92511 31.4625 1.73125 15.4342 1.73125 10.5676C1.73125 5.29795 6.60856 1.02601 12.625 1.02601C14.4954 1.02601 16.2556 1.43886 17.7935 2.16619C16.1522 1.29824 14.2282 0.798828 12.1711 0.798828C6.15465 0.798828 1.27734 5.07077 1.27734 10.3405C1.27734 15.4058 7.98734 32.5629 11.7328 33.8864ZM17.618 10.2269C17.618 13.1754 15.2301 15.5657 12.2846 15.5657C11.5185 15.5657 10.7902 15.404 10.1317 15.1128C10.9025 15.5459 11.7916 15.7928 12.7384 15.7928C15.684 15.7928 18.0718 13.4026 18.0718 10.4541C18.0718 8.27238 16.7645 6.39635 14.8913 5.56809C16.5185 6.48234 17.618 8.22607 17.618 10.2269Z" fill="#C1DDFC"/>
</g>
<defs>
<filter id="filter0_f_2278_69217" x="6.81738" y="2.90625" width="25.7051" height="35.0938" filterUnits="userSpaceOnUse" color-interpolation-filters="sRGB">
<feFlood flood-opacity="0" result="BackgroundImageFix"/>
<feBlend mode="normal" in="SourceGraphic" in2="BackgroundImageFix" result="shape"/>
<feGaussianBlur stdDeviation="1.5" result="effect1_foregroundBlur_2278_69217"/>
</filter>
<linearGradient id="paint0_linear_2278_69217" x1="21.1877" y1="6.55296" x2="14.3352" y2="35.3823" gradientUnits="userSpaceOnUse">
<stop stop-color="#7E7B7B" stop-opacity="0"/>
<stop offset="0.745" stop-color="#1C1B1B" stop-opacity="0.96"/>
<stop offset="1" stop-color="#181717"/>
</linearGradient>
</defs>
</svg>
