<svg width="18" height="18" viewBox="0 0 18 18" fill="none" xmlns="http://www.w3.org/2000/svg">
<path d="M9 0C4.032 0 0 4.032 0 9C0 13.968 4.032 18 9 18C13.968 18 18 13.968 18 9C18 4.032 13.968 0 9 0ZM9 16.2C5.031 16.2 1.8 12.969 1.8 9C1.8 5.031 5.031 1.8 9 1.8C12.969 1.8 16.2 5.031 16.2 9C16.2 12.969 12.969 16.2 9 16.2ZM12.492 5.661L7.2 10.953L5.508 9.261C5.157 8.91 4.59 8.91 4.239 9.261C3.888 9.612 3.888 10.179 4.239 10.53L6.57 12.861C6.921 13.212 7.488 13.212 7.839 12.861L13.77 6.93C14.121 6.579 14.121 6.012 13.77 5.661C13.419 5.31 12.843 5.31 12.492 5.661Z" fill="#1A5A96"/>
</svg>
