<svg width="18" height="18" viewBox="0 0 18 18" fill="none" xmlns="http://www.w3.org/2000/svg">
<path d="M9 18C7.47273 18 6.06818 17.6523 4.78636 16.9568C3.50455 16.2614 2.45455 15.3341 1.63636 14.175V16.3636H0V11.4545H4.90909V13.0909H2.88409C3.53864 14.0727 4.40114 14.8636 5.47159 15.4636C6.54205 16.0636 7.71818 16.3636 9 16.3636C10.0227 16.3636 10.9807 16.1693 11.8739 15.7807C12.767 15.392 13.5443 14.867 14.2057 14.2057C14.867 13.5443 15.392 12.767 15.7807 11.8739C16.1693 10.9807 16.3636 10.0227 16.3636 9H18C18 10.2409 17.7648 11.4068 17.2943 12.4977C16.8239 13.5886 16.1795 14.5432 15.3614 15.3614C14.5432 16.1795 13.5886 16.8239 12.4977 17.2943C11.4068 17.7648 10.2409 18 9 18ZM8.26364 14.7273V13.6636C7.62273 13.5136 7.10114 13.2375 6.69886 12.8352C6.29659 12.433 6 11.9045 5.80909 11.25L7.15909 10.7182C7.32273 11.2773 7.57841 11.6966 7.92614 11.9761C8.27386 12.2557 8.67273 12.3955 9.12273 12.3955C9.57273 12.3955 9.95795 12.2898 10.2784 12.0784C10.5989 11.867 10.7591 11.5364 10.7591 11.0864C10.7591 10.6909 10.592 10.3705 10.258 10.125C9.92386 9.87955 9.32727 9.6 8.46818 9.28636C7.66364 9 7.07386 8.65909 6.69886 8.26364C6.32386 7.86818 6.13636 7.35 6.13636 6.70909C6.13636 6.15 6.33068 5.64205 6.71932 5.18523C7.10795 4.72841 7.63636 4.43182 8.30455 4.29545V3.27273H9.73636V4.29545C10.2273 4.33636 10.6739 4.53409 11.0761 4.88864C11.4784 5.24318 11.7545 5.65909 11.9045 6.13636L10.5955 6.66818C10.4864 6.35455 10.3091 6.09205 10.0636 5.88068C9.81818 5.66932 9.47727 5.56364 9.04091 5.56364C8.56364 5.56364 8.19886 5.66591 7.94659 5.87045C7.69432 6.075 7.56818 6.35455 7.56818 6.70909C7.56818 7.06364 7.725 7.34318 8.03864 7.54773C8.35227 7.75227 8.91818 7.99091 9.73636 8.26364C10.7182 8.61818 11.3727 9.03409 11.7 9.51136C12.0273 9.98864 12.1909 10.5136 12.1909 11.0864C12.1909 11.4818 12.1227 11.8295 11.9864 12.1295C11.85 12.4295 11.6693 12.6852 11.4443 12.8966C11.2193 13.108 10.9568 13.2784 10.6568 13.408C10.3568 13.5375 10.0364 13.6364 9.69545 13.7045V14.7273H8.26364ZM0 9C0 7.75909 0.235227 6.59318 0.705682 5.50227C1.17614 4.41136 1.82045 3.45682 2.63864 2.63864C3.45682 1.82045 4.41136 1.17614 5.50227 0.705682C6.59318 0.235227 7.75909 0 9 0C10.5273 0 11.9318 0.347727 13.2136 1.04318C14.4955 1.73864 15.5455 2.66591 16.3636 3.825V1.63636H18V6.54545H13.0909V4.90909H15.1159C14.4614 3.92727 13.5989 3.13636 12.5284 2.53636C11.458 1.93636 10.2818 1.63636 9 1.63636C7.97727 1.63636 7.01932 1.83068 6.12614 2.21932C5.23295 2.60795 4.45568 3.13295 3.79432 3.79432C3.13295 4.45568 2.60795 5.23295 2.21932 6.12614C1.83068 7.01932 1.63636 7.97727 1.63636 9H0Z" fill="#42814A"/>
</svg>
