<svg width="19" height="18" viewBox="0 0 19 18" fill="none" xmlns="http://www.w3.org/2000/svg">
<g clip-path="url(#clip0_2442_44480)">
<ellipse cx="9.40909" cy="9" rx="9.40909" ry="9" fill="#CE3E39"/>
<path d="M9 13.4209C8.30833 13.4209 7.65833 13.2966 7.05 13.0479C6.44167 12.7992 5.9125 12.4617 5.4625 12.0354C5.0125 11.6091 4.65625 11.1078 4.39375 10.5315C4.13125 9.95516 4 9.33937 4 8.68411C4 8.02884 4.13125 7.41306 4.39375 6.83674C4.65625 6.26042 5.0125 5.75911 5.4625 5.33279C5.9125 4.90648 6.44167 4.56898 7.05 4.32029C7.65833 4.07161 8.30833 3.94727 9 3.94727C9.69167 3.94727 10.3417 4.07161 10.95 4.32029C11.5583 4.56898 12.0875 4.90648 12.5375 5.33279C12.9875 5.75911 13.3438 6.26042 13.6062 6.83674C13.8688 7.41306 14 8.02884 14 8.68411C14 9.33937 13.8688 9.95516 13.6062 10.5315C13.3438 11.1078 12.9875 11.6091 12.5375 12.0354C12.0875 12.4617 11.5583 12.7992 10.95 13.0479C10.3417 13.2966 9.69167 13.4209 9 13.4209ZM9 12.4736C9.45 12.4736 9.88333 12.4045 10.3 12.2663C10.7167 12.1282 11.1 11.9288 11.45 11.6683L5.85 6.36306C5.575 6.69463 5.36458 7.05779 5.21875 7.45253C5.07292 7.84727 5 8.25779 5 8.68411C5 9.742 5.3875 10.6381 6.1625 11.3723C6.9375 12.1065 7.88333 12.4736 9 12.4736ZM12.15 11.0052C12.425 10.6736 12.6354 10.3104 12.7812 9.91569C12.9271 9.52095 13 9.11042 13 8.68411C13 7.62621 12.6125 6.73016 11.8375 5.99595C11.0625 5.26174 10.1167 4.89463 9 4.89463C8.55 4.89463 8.11667 4.96371 7.7 5.10187C7.28333 5.24003 6.9 5.43937 6.55 5.6999L12.15 11.0052Z" fill="white"/>
</g>
<defs>
<clipPath id="clip0_2442_44480">
<rect width="19" height="18" fill="white"/>
</clipPath>
</defs>
</svg>
