<svg width="18" height="18" viewBox="0 0 18 18" fill="none" xmlns="http://www.w3.org/2000/svg">
<rect width="18" height="18" rx="9" fill="#CE3E39"/>
<path d="M8.99935 14.8334C8.1924 14.8334 7.43407 14.6803 6.72435 14.374C6.01463 14.0678 5.39727 13.6522 4.87227 13.1272C4.34727 12.6022 3.93164 11.9848 3.62539 11.2751C3.31914 10.5654 3.16602 9.80703 3.16602 9.00008C3.16602 8.19314 3.31914 7.4348 3.62539 6.72508C3.93164 6.01536 4.34727 5.398 4.87227 4.873C5.39727 4.348 6.01463 3.93237 6.72435 3.62612C7.43407 3.31987 8.1924 3.16675 8.99935 3.16675C9.80629 3.16675 10.5646 3.31987 11.2743 3.62612C11.9841 3.93237 12.6014 4.348 13.1264 4.873C13.6514 5.398 14.0671 6.01536 14.3733 6.72508C14.6796 7.4348 14.8327 8.19314 14.8327 9.00008C14.8327 9.80703 14.6796 10.5654 14.3733 11.2751C14.0671 11.9848 13.6514 12.6022 13.1264 13.1272C12.6014 13.6522 11.9841 14.0678 11.2743 14.374C10.5646 14.6803 9.80629 14.8334 8.99935 14.8334ZM8.99935 13.6667C9.52435 13.6667 10.0299 13.5817 10.516 13.4115C11.0021 13.2414 11.4493 12.9959 11.8577 12.6751L5.32435 6.14175C5.00352 6.55008 4.75803 6.9973 4.58789 7.48341C4.41775 7.96953 4.33268 8.47508 4.33268 9.00008C4.33268 10.3029 4.78477 11.4063 5.68893 12.3105C6.5931 13.2147 7.69657 13.6667 8.99935 13.6667ZM12.6743 11.8584C12.9952 11.4501 13.2407 11.0029 13.4108 10.5167C13.5809 10.0306 13.666 9.52508 13.666 9.00008C13.666 7.6973 13.2139 6.59383 12.3098 5.68966C11.4056 4.7855 10.3021 4.33341 8.99935 4.33341C8.47435 4.33341 7.96879 4.41848 7.48268 4.58862C6.99657 4.75876 6.54935 5.00425 6.14102 5.32508L12.6743 11.8584Z" fill="white"/>
</svg>
