<svg width="20" height="20" viewBox="0 0 20 20" fill="none" xmlns="http://www.w3.org/2000/svg">
<ellipse cx="9.5" cy="9" rx="9.5" ry="9" fill="#42814A"/>
<path d="M9.08096 11.5C9.01979 11.5 8.96244 11.4906 8.90891 11.4718C8.85538 11.4533 8.80568 11.4217 8.75979 11.377L6.78691 9.45302C6.7028 9.37099 6.66258 9.26465 6.66625 9.134C6.67022 9.00365 6.71427 8.89746 6.79838 8.81544C6.8825 8.73341 6.98955 8.69239 7.11955 8.69239C7.24955 8.69239 7.3566 8.73341 7.44072 8.81544L9.08096 10.415L12.9694 6.62304C13.0535 6.54101 13.1625 6.5 13.2965 6.5C13.4302 6.5 13.5391 6.54101 13.6232 6.62304C13.7073 6.70507 13.7493 6.81126 13.7493 6.94161C13.7493 7.07226 13.7073 7.1786 13.6232 7.26063L9.40213 11.377C9.35625 11.4217 9.30654 11.4533 9.25301 11.4718C9.19949 11.4906 9.14214 11.5 9.08096 11.5Z" fill="white"/>
</svg>
