<svg width="16" height="19" viewBox="0 0 16 19" fill="none" xmlns="http://www.w3.org/2000/svg">
<path id="Vector" d="M5.4 14.1543L8 11.5543L10.6 14.1543L12 12.7543L9.4 10.1543L12 7.5543L10.6 6.1543L8 8.7543L5.4 6.1543L4 7.5543L6.6 10.1543L4 12.7543L5.4 14.1543ZM3 18.6543C2.45 18.6543 1.97917 18.4585 1.5875 18.0668C1.19583 17.6751 1 17.2043 1 16.6543V3.6543H0V1.6543H5V0.654297H11V1.6543H16V3.6543H15V16.6543C15 17.2043 14.8042 17.6751 14.4125 18.0668C14.0208 18.4585 13.55 18.6543 13 18.6543H3Z" fill="#9F9D9C"/>
</svg>
