<svg width="24" height="25" viewBox="0 0 24 25" fill="none" xmlns="http://www.w3.org/2000/svg">
<g id="Frame">
<path id="Vector" d="M11 17.5605H13V11.5605H11V17.5605ZM12 9.56055C12.2833 9.56055 12.5208 9.46471 12.7125 9.27305C12.9042 9.08138 13 8.84388 13 8.56055C13 8.27721 12.9042 8.03971 12.7125 7.84805C12.5208 7.65638 12.2833 7.56055 12 7.56055C11.7167 7.56055 11.4792 7.65638 11.2875 7.84805C11.0958 8.03971 11 8.27721 11 8.56055C11 8.84388 11.0958 9.08138 11.2875 9.27305C11.4792 9.46471 11.7167 9.56055 12 9.56055ZM12 22.5605C10.6167 22.5605 9.31667 22.298 8.1 21.773C6.88333 21.248 5.825 20.5355 4.925 19.6355C4.025 18.7355 3.3125 17.6772 2.7875 16.4605C2.2625 15.2439 2 13.9439 2 12.5605C2 11.1772 2.2625 9.87721 2.7875 8.66055C3.3125 7.44388 4.025 6.38555 4.925 5.48555C5.825 4.58555 6.88333 3.87305 8.1 3.34805C9.31667 2.82305 10.6167 2.56055 12 2.56055C13.3833 2.56055 14.6833 2.82305 15.9 3.34805C17.1167 3.87305 18.175 4.58555 19.075 5.48555C19.975 6.38555 20.6875 7.44388 21.2125 8.66055C21.7375 9.87721 22 11.1772 22 12.5605C22 13.9439 21.7375 15.2439 21.2125 16.4605C20.6875 17.6772 19.975 18.7355 19.075 19.6355C18.175 20.5355 17.1167 21.248 15.9 21.773C14.6833 22.298 13.3833 22.5605 12 22.5605ZM12 20.5605C14.2333 20.5605 16.125 19.7855 17.675 18.2355C19.225 16.6855 20 14.7939 20 12.5605C20 10.3272 19.225 8.43555 17.675 6.88555C16.125 5.33555 14.2333 4.56055 12 4.56055C9.76667 4.56055 7.875 5.33555 6.325 6.88555C4.775 8.43555 4 10.3272 4 12.5605C4 14.7939 4.775 16.6855 6.325 18.2355C7.875 19.7855 9.76667 20.5605 12 20.5605Z" fill="#282828"/>
</g>
</svg>
