<svg width="50" height="50" viewBox="0 0 50 50" fill="none" xmlns="http://www.w3.org/2000/svg">
<rect width="50" height="50" rx="25" fill="#DFE5EE"/>
<path d="M23.3316 41V37.1778C21.82 36.8222 20.5152 36.1407 19.4171 35.1333C18.3191 34.1259 17.5134 32.7037 17 30.8667L20.1658 29.5333C20.5936 30.9556 21.2282 32.037 22.0695 32.7778C22.9109 33.5185 24.016 33.8889 25.385 33.8889C26.5544 33.8889 27.5455 33.6148 28.3583 33.0667C29.1711 32.5185 29.5775 31.6667 29.5775 30.5111C29.5775 29.4741 29.2638 28.6519 28.6364 28.0444C28.0089 27.437 26.5544 26.7481 24.2727 25.9778C21.82 25.1778 20.1373 24.2222 19.2246 23.1111C18.3119 22 17.8556 20.6444 17.8556 19.0444C17.8556 17.1185 18.4545 15.6222 19.6524 14.5556C20.8503 13.4889 22.0766 12.8815 23.3316 12.7333V9H26.754V12.7333C28.18 12.9704 29.3565 13.5111 30.2834 14.3556C31.2103 15.2 31.8877 16.2296 32.3155 17.4444L29.1497 18.8667C28.8075 17.9185 28.3226 17.2074 27.6952 16.7333C27.0677 16.2593 26.2121 16.0222 25.1283 16.0222C23.8734 16.0222 22.918 16.3111 22.262 16.8889C21.6061 17.4667 21.2781 18.1852 21.2781 19.0444C21.2781 20.0222 21.7059 20.7926 22.5615 21.3556C23.4171 21.9185 24.9002 22.5111 27.0107 23.1333C28.9786 23.7259 30.4688 24.6667 31.4813 25.9556C32.4938 27.2444 33 28.7333 33 30.4222C33 32.5259 32.4011 34.1259 31.2032 35.2222C30.0053 36.3185 28.5223 37 26.754 37.2667V41H23.3316Z" fill="#1A5A96"/>
</svg>
