<svg width="20" height="20" viewBox="0 0 20 20" fill="none" xmlns="http://www.w3.org/2000/svg">
<circle cx="9" cy="9" r="9" fill="#9F9D9C"/>
<path d="M6.84211 14C6.61053 14 6.41235 13.912 6.24758 13.7358C6.08253 13.5595 6 13.3475 6 13.1V5.9C6 5.6525 6.08253 5.44055 6.24758 5.26415C6.41235 5.08805 6.61053 5 6.84211 5H9.86316C9.97544 5 10.0825 5.0225 10.1844 5.0675C10.286 5.1125 10.3754 5.17625 10.4526 5.25875L12.4947 7.44125C12.5719 7.52375 12.6316 7.6193 12.6737 7.7279C12.7158 7.8368 12.7368 7.95125 12.7368 8.07125V9.095L9.36842 12.6838V14H6.84211ZM10.4211 14C10.3649 14 10.3158 13.9775 10.2737 13.9325C10.2316 13.8875 10.2105 13.835 10.2105 13.775V13.235C10.2105 13.175 10.2229 13.115 10.2476 13.055C10.272 12.995 10.3018 12.9462 10.3368 12.9088L12.3789 10.715L13.2842 11.66L11.2316 13.865C11.1965 13.91 11.1509 13.9437 11.0947 13.9662C11.0386 13.9887 10.9825 14 10.9263 14H10.4211ZM13.5895 11.345L12.6947 10.3888L12.9895 10.0737C13.0737 9.98375 13.1754 9.93875 13.2947 9.93875C13.414 9.93875 13.5123 9.98375 13.5895 10.0737L13.8842 10.4C13.9614 10.49 14 10.5968 14 10.7204C14 10.8443 13.9614 10.9475 13.8842 11.03L13.5895 11.345ZM10.2105 8.15H11.8947L9.78947 5.9V7.7C9.78947 7.8275 9.82989 7.9343 9.91074 8.0204C9.9913 8.1068 10.0912 8.15 10.2105 8.15Z" fill="white"/>
</svg>
