<svg width="23" height="23" viewBox="0 0 23 23" fill="none" xmlns="http://www.w3.org/2000/svg">
<path id="Vector" d="M0.5 22.5605V17.3661L16.6333 1.26332C16.8778 1.03925 17.1477 0.866102 17.4431 0.74388C17.7384 0.621658 18.0491 0.560547 18.375 0.560547C18.7009 0.560547 19.0167 0.621658 19.3222 0.74388C19.6278 0.866102 19.8926 1.04944 20.1167 1.29388L21.7972 3.00499C22.0417 3.22907 22.2199 3.49388 22.3319 3.79944C22.444 4.10499 22.5 4.41055 22.5 4.7161C22.5 5.04203 22.444 5.35268 22.3319 5.64805C22.2199 5.94342 22.0417 6.21333 21.7972 6.45777L5.69444 22.5605H0.5ZM18.3444 6.42721L20.0556 4.7161L18.3444 3.00499L16.6333 4.7161L18.3444 6.42721Z" fill="#282828"/>
</svg>
