<svg width="18" height="18" viewBox="0 0 18 18" fill="none" xmlns="http://www.w3.org/2000/svg">
<g clip-path="url(#clip0_5801_59773)">
<g clip-path="url(#clip1_5801_59773)">
<circle cx="9" cy="9" r="9" fill="#013366"/>
<path d="M11.9166 13.625C11.6458 13.625 11.4027 13.5391 11.1874 13.3672C10.9721 13.1953 10.8228 12.9757 10.7395 12.7083H8.58325C8.12492 12.7083 7.73256 12.5288 7.40617 12.1698C7.07978 11.8108 6.91659 11.3792 6.91659 10.875C6.91659 10.3708 7.07978 9.93924 7.40617 9.58021C7.73256 9.22118 8.12492 9.04167 8.58325 9.04167H9.41659C9.64575 9.04167 9.84193 8.95191 10.0051 8.7724C10.1683 8.59288 10.2499 8.37708 10.2499 8.125C10.2499 7.87292 10.1683 7.65712 10.0051 7.4776C9.84193 7.29809 9.64575 7.20833 9.41659 7.20833H7.26034C7.17006 7.47569 7.01902 7.69531 6.80721 7.86719C6.5954 8.03906 6.35409 8.125 6.08325 8.125C5.73603 8.125 5.44089 7.99132 5.19784 7.72396C4.95478 7.4566 4.83325 7.13194 4.83325 6.75C4.83325 6.36806 4.95478 6.0434 5.19784 5.77604C5.44089 5.50868 5.73603 5.375 6.08325 5.375C6.35409 5.375 6.5954 5.46094 6.80721 5.63281C7.01902 5.80469 7.17006 6.02431 7.26034 6.29167H9.41659C9.87492 6.29167 10.2673 6.47118 10.5937 6.83021C10.9201 7.18924 11.0833 7.62083 11.0833 8.125C11.0833 8.62917 10.9201 9.06076 10.5937 9.41979C10.2673 9.77882 9.87492 9.95833 9.41659 9.95833H8.58325C8.35409 9.95833 8.15791 10.0481 7.99471 10.2276C7.83152 10.4071 7.74992 10.6229 7.74992 10.875C7.74992 11.1271 7.83152 11.3429 7.99471 11.5224C8.15791 11.7019 8.35409 11.7917 8.58325 11.7917H10.7395C10.8298 11.5243 10.9808 11.3047 11.1926 11.1328C11.4044 10.9609 11.6458 10.875 11.9166 10.875C12.2638 10.875 12.5589 11.0087 12.802 11.276C13.0451 11.5434 13.1666 11.8681 13.1666 12.25C13.1666 12.6319 13.0451 12.9566 12.802 13.224C12.5589 13.4913 12.2638 13.625 11.9166 13.625ZM6.08325 7.20833C6.20131 7.20833 6.30027 7.16441 6.38013 7.07656C6.45999 6.98872 6.49992 6.87986 6.49992 6.75C6.49992 6.62014 6.45999 6.51128 6.38013 6.42344C6.30027 6.33559 6.20131 6.29167 6.08325 6.29167C5.9652 6.29167 5.86624 6.33559 5.78638 6.42344C5.70652 6.51128 5.66659 6.62014 5.66659 6.75C5.66659 6.87986 5.70652 6.98872 5.78638 7.07656C5.86624 7.16441 5.9652 7.20833 6.08325 7.20833Z" fill="white"/>
</g>
</g>
<defs>
<clipPath id="clip0_5801_59773">
<rect width="18" height="18" fill="white"/>
</clipPath>
<clipPath id="clip1_5801_59773">
<rect width="18" height="18" fill="white"/>
</clipPath>
</defs>
</svg>
