<svg width="126" height="30" viewBox="0 0 126 30" fill="none" xmlns="http://www.w3.org/2000/svg">
<circle cx="9" cy="14" r="9" fill="#013366"/>
<path d="M11.9166 17.625C11.6458 17.625 11.4027 17.5391 11.1874 17.3672C10.9721 17.1953 10.8228 16.9757 10.7395 16.7083H8.58325C8.12492 16.7083 7.73256 16.5288 7.40617 16.1698C7.07978 15.8108 6.91659 15.3792 6.91659 14.875C6.91659 14.3708 7.07978 13.9392 7.40617 13.5802C7.73256 13.2212 8.12492 13.0417 8.58325 13.0417H9.41659C9.64575 13.0417 9.84193 12.9519 10.0051 12.7724C10.1683 12.5929 10.2499 12.3771 10.2499 12.125C10.2499 11.8729 10.1683 11.6571 10.0051 11.4776C9.84193 11.2981 9.64575 11.2083 9.41659 11.2083H7.26034C7.17006 11.4757 7.01902 11.6953 6.80721 11.8672C6.5954 12.0391 6.35409 12.125 6.08325 12.125C5.73603 12.125 5.44089 11.9913 5.19784 11.724C4.95478 11.4566 4.83325 11.1319 4.83325 10.75C4.83325 10.3681 4.95478 10.0434 5.19784 9.77604C5.44089 9.50868 5.73603 9.375 6.08325 9.375C6.35409 9.375 6.5954 9.46094 6.80721 9.63281C7.01902 9.80469 7.17006 10.0243 7.26034 10.2917H9.41659C9.87492 10.2917 10.2673 10.4712 10.5937 10.8302C10.9201 11.1892 11.0833 11.6208 11.0833 12.125C11.0833 12.6292 10.9201 13.0608 10.5937 13.4198C10.2673 13.7788 9.87492 13.9583 9.41659 13.9583H8.58325C8.35409 13.9583 8.15791 14.0481 7.99471 14.2276C7.83152 14.4071 7.74992 14.6229 7.74992 14.875C7.74992 15.1271 7.83152 15.3429 7.99471 15.5224C8.15791 15.7019 8.35409 15.7917 8.58325 15.7917H10.7395C10.8298 15.5243 10.9808 15.3047 11.1926 15.1328C11.4044 14.9609 11.6458 14.875 11.9166 14.875C12.2638 14.875 12.5589 15.0087 12.802 15.276C13.0451 15.5434 13.1666 15.8681 13.1666 16.25C13.1666 16.6319 13.0451 16.9566 12.802 17.224C12.5589 17.4913 12.2638 17.625 11.9166 17.625ZM6.08325 11.2083C6.20131 11.2083 6.30027 11.1644 6.38013 11.0766C6.45999 10.9887 6.49992 10.8799 6.49992 10.75C6.49992 10.6201 6.45999 10.5113 6.38013 10.4234C6.30027 10.3356 6.20131 10.2917 6.08325 10.2917C5.9652 10.2917 5.86624 10.3356 5.78638 10.4234C5.70652 10.5113 5.66659 10.6201 5.66659 10.75C5.66659 10.8799 5.70652 10.9887 5.78638 11.0766C5.86624 11.1644 5.9652 11.2083 6.08325 11.2083Z" fill="white"/>
<path d="M24.904 11.592L23.512 10.952V9.576H28.712V10.952L27.32 11.592V18.984L28.712 19.624V21H23.512V19.624L24.904 18.984V11.592ZM30.4668 21V12.264H32.2908L32.6108 13.384H32.7388C33.2988 12.488 34.3388 12.104 35.4268 12.104C37.2987 12.104 38.5308 13.064 38.5308 15.304V21H36.1468V15.896C36.1468 14.616 35.7148 14.008 34.7388 14.008C33.2828 14.008 32.8508 15.032 32.8508 16.888V21H30.4668ZM45.3306 21V9.576H48.9786C51.9226 9.576 53.2186 10.92 53.2186 13.144C53.2186 15.144 52.1146 16.936 48.7866 16.936H47.7466V21H45.3306ZM48.8506 11.56H47.7466V14.952H48.5466C49.9066 14.952 50.7706 14.44 50.7706 13.224C50.7706 12.12 50.1306 11.56 48.8506 11.56ZM60.0655 12.104C60.3055 12.104 60.6735 12.12 60.8655 12.168L60.6895 14.408C60.5135 14.36 60.1935 14.328 59.9855 14.328C58.7535 14.328 57.5695 14.904 57.5695 16.552V21H55.1855V12.264H56.9935L57.3455 13.736H57.4575C57.9695 12.84 58.8975 12.104 60.0655 12.104ZM70.0746 16.616C70.0746 19.512 68.4426 21.16 65.8186 21.16C63.3866 21.16 61.6106 19.528 61.6106 16.616C61.6106 13.72 63.2266 12.104 65.8666 12.104C68.3146 12.104 70.0746 13.736 70.0746 16.616ZM64.0426 16.616C64.0426 18.344 64.5706 19.24 65.8506 19.24C67.1146 19.24 67.6426 18.344 67.6426 16.616C67.6426 14.888 67.1146 14.024 65.8346 14.024C64.5706 14.024 64.0426 14.888 64.0426 16.616ZM74.8769 12.104C75.9489 12.104 76.7969 12.536 77.4049 13.384H77.4689L77.6609 12.264H79.6769V21.016C79.6769 23.512 78.1889 24.84 75.3089 24.84C74.0769 24.84 73.0529 24.712 72.0449 24.328V22.424C73.1169 22.872 74.2529 23.096 75.4529 23.096C76.6849 23.096 77.2929 22.44 77.2929 21.112V20.936C77.2929 20.6 77.3089 20.168 77.3569 19.864H77.2929C76.7009 20.776 75.8529 21.16 74.8129 21.16C72.7489 21.16 71.5169 19.48 71.5169 16.648C71.5169 13.784 72.7809 12.104 74.8769 12.104ZM75.6289 14.04C74.5089 14.04 73.9489 14.92 73.9489 16.68C73.9489 18.424 74.5249 19.288 75.6609 19.288C76.8769 19.288 77.4529 18.68 77.4529 16.952V16.664C77.4529 14.792 76.9089 14.04 75.6289 14.04ZM87.0499 12.104C87.2899 12.104 87.6579 12.12 87.8499 12.168L87.6739 14.408C87.4979 14.36 87.1779 14.328 86.9699 14.328C85.7379 14.328 84.5539 14.904 84.5539 16.552V21H82.1699V12.264H83.9779L84.3299 13.736H84.4419C84.9539 12.84 85.8819 12.104 87.0499 12.104ZM92.723 12.104C95.139 12.104 96.643 13.528 96.643 16.072V17.224H91.011C91.059 18.568 91.843 19.384 93.187 19.384C94.291 19.384 95.171 19.16 96.147 18.696V20.536C95.267 20.968 94.419 21.16 93.075 21.16C90.467 21.16 88.595 19.72 88.595 16.696C88.595 13.656 90.259 12.104 92.723 12.104ZM92.739 13.8C91.795 13.8 91.171 14.376 91.059 15.64H94.403C94.387 14.6 93.843 13.8 92.739 13.8ZM104.672 18.408C104.672 20.184 103.424 21.16 100.944 21.16C99.7281 21.16 98.9441 21.016 98.0641 20.648V18.68C99.0081 19.112 100.192 19.416 101.024 19.416C101.936 19.416 102.32 19.112 102.32 18.664C102.32 18.216 102.128 17.992 100.432 17.288C98.7841 16.584 98.0481 16.024 98.0481 14.536C98.0481 12.92 99.4081 12.104 101.504 12.104C102.592 12.104 103.536 12.296 104.576 12.792L103.856 14.504C103.008 14.136 102.256 13.864 101.472 13.864C100.768 13.864 100.416 14.056 100.416 14.44C100.416 14.872 100.704 15.048 102.24 15.688C103.744 16.296 104.672 16.856 104.672 18.408ZM112.625 18.408C112.625 20.184 111.377 21.16 108.897 21.16C107.681 21.16 106.897 21.016 106.017 20.648V18.68C106.961 19.112 108.145 19.416 108.977 19.416C109.889 19.416 110.273 19.112 110.273 18.664C110.273 18.216 110.081 17.992 108.385 17.288C106.737 16.584 106.001 16.024 106.001 14.536C106.001 12.92 107.361 12.104 109.457 12.104C110.545 12.104 111.489 12.296 112.529 12.792L111.809 14.504C110.961 14.136 110.209 13.864 109.425 13.864C108.721 13.864 108.369 14.056 108.369 14.44C108.369 14.872 108.657 15.048 110.193 15.688C111.697 16.296 112.625 16.856 112.625 18.408Z" fill="#474543"/>
</svg>
