<svg width="25" height="19" viewBox="0 0 25 19" fill="none" xmlns="http://www.w3.org/2000/svg">
<path id="Vector" d="M0 13.5714V10.8571H11.1111V13.5714H0ZM0 19V16.2857H11.1111V19H0ZM0 8.14286V5.42857H11.1111V8.14286H0ZM0 2.71429V0H11.1111V2.71429H0ZM16.6667 19C15.9028 19 15.2488 18.7342 14.7049 18.2027C14.1609 17.6711 13.8889 17.0321 13.8889 16.2857V2.71429C13.8889 1.96786 14.1609 1.32887 14.7049 0.797321C15.2488 0.265774 15.9028 0 16.6667 0H22.2222C22.9861 0 23.64 0.265774 24.184 0.797321C24.728 1.32887 25 1.96786 25 2.71429V16.2857C25 17.0321 24.728 17.6711 24.184 18.2027C23.64 18.7342 22.9861 19 22.2222 19H16.6667Z" fill="#2D2D2D"/>
</svg>
