<svg width="18" height="18" viewBox="0 0 18 18" fill="none" xmlns="http://www.w3.org/2000/svg">
<g clip-path="url(#clip0_2442_44487)">
<circle cx="9" cy="9" r="9" fill="#3470B1"/>
<path d="M11.4237 11.8062L11.2325 11.615C11.165 11.5475 11.0843 11.5138 10.9904 11.5138C10.8968 11.5138 10.8162 11.5475 10.7487 11.615C10.6812 11.6825 10.6475 11.7613 10.6475 11.8513C10.6475 11.9412 10.6812 12.02 10.7487 12.0875L11.1875 12.5262C11.255 12.5938 11.3337 12.6275 11.4237 12.6275C11.5137 12.6275 11.5925 12.5938 11.66 12.5262L12.7512 11.4575C12.8187 11.39 12.8525 11.3093 12.8525 11.2154C12.8525 11.1218 12.8187 11.0412 12.7512 10.9737C12.6838 10.9062 12.6032 10.8725 12.5096 10.8725C12.4157 10.8725 12.335 10.9062 12.2675 10.9737L11.4237 11.8062ZM11.3 7.7C11.4275 7.7 11.5343 7.6568 11.6204 7.5704C11.7068 7.4843 11.75 7.3775 11.75 7.25C11.75 7.1225 11.7068 7.01555 11.6204 6.92915C11.5343 6.84305 11.4275 6.8 11.3 6.8H6.8C6.6725 6.8 6.56555 6.84305 6.47915 6.92915C6.39305 7.01555 6.35 7.1225 6.35 7.25C6.35 7.3775 6.39305 7.4843 6.47915 7.5704C6.56555 7.6568 6.6725 7.7 6.8 7.7H11.3ZM11.75 14C11.1275 14 10.597 13.7807 10.1583 13.3421C9.71945 12.9032 9.5 12.3725 9.5 11.75C9.5 11.1275 9.71945 10.5968 10.1583 10.1579C10.597 9.7193 11.1275 9.5 11.75 9.5C12.3725 9.5 12.9032 9.7193 13.3421 10.1579C13.7807 10.5968 14 11.1275 14 11.75C14 12.3725 13.7807 12.9032 13.3421 13.3421C12.9032 13.7807 12.3725 14 11.75 14ZM5.9 5H12.2C12.4475 5 12.6595 5.08805 12.8358 5.26415C13.0119 5.44055 13.1 5.6525 13.1 5.9V8.90375C12.89 8.79875 12.6707 8.7218 12.4421 8.6729C12.2132 8.6243 11.9825 8.6 11.75 8.6H6.8C6.6725 8.6 6.56555 8.64305 6.47915 8.72915C6.39305 8.81555 6.35 8.9225 6.35 9.05C6.35 9.1775 6.39305 9.2843 6.47915 9.3704C6.56555 9.4568 6.6725 9.5 6.8 9.5H9.545C9.4175 9.6275 9.2993 9.76625 9.1904 9.91625C9.0818 10.0662 8.98625 10.2275 8.90375 10.4H6.8C6.6725 10.4 6.56555 10.443 6.47915 10.5291C6.39305 10.6155 6.35 10.7225 6.35 10.85C6.35 10.9775 6.39305 11.0843 6.47915 11.1704C6.56555 11.2568 6.6725 11.3 6.8 11.3H8.63375C8.61875 11.375 8.6093 11.4482 8.6054 11.5196C8.6018 11.5907 8.6 11.6675 8.6 11.75C8.6 12.065 8.6432 12.367 8.7296 12.6558C8.8157 12.9444 8.945 13.22 9.1175 13.4825C9.08 13.49 9.04055 13.4843 8.99915 13.4654C8.95805 13.4468 8.9225 13.4225 8.8925 13.3925L8.5325 13.0325C8.4875 12.9875 8.435 12.965 8.375 12.965C8.315 12.965 8.2625 12.9875 8.2175 13.0325L7.8575 13.3925C7.8125 13.4375 7.76 13.46 7.7 13.46C7.64 13.46 7.5875 13.4375 7.5425 13.3925L7.1825 13.0325C7.1375 12.9875 7.085 12.965 7.025 12.965C6.965 12.965 6.9125 12.9875 6.8675 13.0325L6.5075 13.3925C6.4625 13.4375 6.41 13.46 6.35 13.46C6.29 13.46 6.2375 13.4375 6.1925 13.3925L5.8325 13.0325C5.7875 12.9875 5.735 12.965 5.675 12.965C5.615 12.965 5.5625 12.9875 5.5175 13.0325L5.1575 13.3925L5 13.4937V5.9C5 5.6525 5.08805 5.44055 5.26415 5.26415C5.44055 5.08805 5.6525 5 5.9 5Z" fill="white"/>
</g>
<defs>
<clipPath id="clip0_2442_44487">
<rect width="18" height="18" fill="white"/>
</clipPath>
</defs>
</svg>
