<svg width="18" height="18" viewBox="0 0 18 18" fill="none" xmlns="http://www.w3.org/2000/svg">
<path d="M9.42857 10.6286L10.6286 9.42857L8.57143 7.37143V3.42857H6.85714V8.05714L9.42857 10.6286ZM6.17143 13.5214C6.4 12.8357 6.80357 12.2679 7.38214 11.8179C7.96071 11.3679 8.62857 11.1429 9.38571 11.1429H12.6429C12.9857 10.6571 13.25 10.125 13.4357 9.54643C13.6214 8.96786 13.7143 8.35714 13.7143 7.71429C13.7143 6.04286 13.1321 4.625 11.9679 3.46071C10.8036 2.29643 9.38571 1.71429 7.71429 1.71429C6.04286 1.71429 4.625 2.29643 3.46071 3.46071C2.29643 4.625 1.71429 6.04286 1.71429 7.71429C1.71429 9.11429 2.13214 10.3464 2.96786 11.4107C3.80357 12.475 4.87143 13.1786 6.17143 13.5214ZM9.42857 18C8.6 18 7.87143 17.7393 7.24286 17.2179C6.61429 16.6964 6.22143 16.0429 6.06429 15.2571C4.32143 14.8857 2.875 14 1.725 12.6C0.575 11.2 0 9.57143 0 7.71429C0 5.57143 0.75 3.75 2.25 2.25C3.75 0.75 5.57143 0 7.71429 0C9.85714 0 11.6786 0.75 13.1786 2.25C14.6786 3.75 15.4286 5.57143 15.4286 7.71429C15.4286 8.32857 15.3607 8.925 15.225 9.50357C15.0893 10.0821 14.8929 10.6286 14.6357 11.1429C15.5786 11.1429 16.375 11.4786 17.025 12.15C17.675 12.8214 18 13.6286 18 14.5714C18 15.5143 17.6643 16.3214 16.9929 16.9929C16.3214 17.6643 15.5143 18 14.5714 18H9.42857ZM9.42857 16.2857H14.5714C15.0429 16.2857 15.4464 16.1179 15.7821 15.7821C16.1179 15.4464 16.2857 15.0429 16.2857 14.5714C16.2857 14.1 16.1179 13.6964 15.7821 13.3607C15.4464 13.025 15.0429 12.8571 14.5714 12.8571H9.42857C8.95714 12.8571 8.55357 13.025 8.21786 13.3607C7.88214 13.6964 7.71429 14.1 7.71429 14.5714C7.71429 15.0429 7.88214 15.4464 8.21786 15.7821C8.55357 16.1179 8.95714 16.2857 9.42857 16.2857ZM9.42857 15.4286C9.18571 15.4286 8.98214 15.3464 8.81786 15.1821C8.65357 15.0179 8.57143 14.8143 8.57143 14.5714C8.57143 14.3286 8.65357 14.125 8.81786 13.9607C8.98214 13.7964 9.18571 13.7143 9.42857 13.7143C9.67143 13.7143 9.875 13.7964 10.0393 13.9607C10.2036 14.125 10.2857 14.3286 10.2857 14.5714C10.2857 14.8143 10.2036 15.0179 10.0393 15.1821C9.875 15.3464 9.67143 15.4286 9.42857 15.4286ZM12 15.4286C11.7571 15.4286 11.5536 15.3464 11.3893 15.1821C11.225 15.0179 11.1429 14.8143 11.1429 14.5714C11.1429 14.3286 11.225 14.125 11.3893 13.9607C11.5536 13.7964 11.7571 13.7143 12 13.7143C12.2429 13.7143 12.4464 13.7964 12.6107 13.9607C12.775 14.125 12.8571 14.3286 12.8571 14.5714C12.8571 14.8143 12.775 15.0179 12.6107 15.1821C12.4464 15.3464 12.2429 15.4286 12 15.4286ZM14.5714 15.4286C14.3286 15.4286 14.125 15.3464 13.9607 15.1821C13.7964 15.0179 13.7143 14.8143 13.7143 14.5714C13.7143 14.3286 13.7964 14.125 13.9607 13.9607C14.125 13.7964 14.3286 13.7143 14.5714 13.7143C14.8143 13.7143 15.0179 13.7964 15.1821 13.9607C15.3464 14.125 15.4286 14.3286 15.4286 14.5714C15.4286 14.8143 15.3464 15.0179 15.1821 15.1821C15.0179 15.3464 14.8143 15.4286 14.5714 15.4286Z" fill="#F38B27"/>
</svg>
