<svg width="16" height="18" viewBox="0 0 16 18" fill="none" xmlns="http://www.w3.org/2000/svg">
<path d="M5.95556 15.03L4.71111 13.77L6.75556 11.7L4.71111 9.63L5.95556 8.37L8 10.44L10.0444 8.37L11.2889 9.63L9.24444 11.7L11.2889 13.77L10.0444 15.03L8 12.96L5.95556 15.03ZM1.77778 18C1.28889 18 0.87037 17.8238 0.522222 17.4713C0.174074 17.1188 0 16.695 0 16.2V3.6C0 3.105 0.174074 2.68125 0.522222 2.32875C0.87037 1.97625 1.28889 1.8 1.77778 1.8H2.66667V0H4.44444V1.8H11.5556V0H13.3333V1.8H14.2222C14.7111 1.8 15.1296 1.97625 15.4778 2.32875C15.8259 2.68125 16 3.105 16 3.6V16.2C16 16.695 15.8259 17.1188 15.4778 17.4713C15.1296 17.8238 14.7111 18 14.2222 18H1.77778ZM1.77778 16.2H14.2222V7.2H1.77778V16.2ZM1.77778 5.4H14.2222V3.6H1.77778V5.4Z" fill="#CE3E39"/>
</svg>
