<svg width="18" height="18" viewBox="0 0 18 18" fill="none" xmlns="http://www.w3.org/2000/svg">
<path d="M11.97 13.23L13.23 11.97L9.9 8.64V4.5H8.1V9.36L11.97 13.23ZM9 18C7.755 18 6.585 17.7638 5.49 17.2913C4.395 16.8188 3.4425 16.1775 2.6325 15.3675C1.8225 14.5575 1.18125 13.605 0.70875 12.51C0.23625 11.415 0 10.245 0 9C0 7.755 0.23625 6.585 0.70875 5.49C1.18125 4.395 1.8225 3.4425 2.6325 2.6325C3.4425 1.8225 4.395 1.18125 5.49 0.70875C6.585 0.23625 7.755 0 9 0C10.245 0 11.415 0.23625 12.51 0.70875C13.605 1.18125 14.5575 1.8225 15.3675 2.6325C16.1775 3.4425 16.8188 4.395 17.2913 5.49C17.7638 6.585 18 7.755 18 9C18 10.245 17.7638 11.415 17.2913 12.51C16.8188 13.605 16.1775 14.5575 15.3675 15.3675C14.5575 16.1775 13.605 16.8188 12.51 17.2913C11.415 17.7638 10.245 18 9 18ZM9 16.2C10.995 16.2 12.6938 15.4988 14.0963 14.0963C15.4988 12.6938 16.2 10.995 16.2 9C16.2 7.005 15.4988 5.30625 14.0963 3.90375C12.6938 2.50125 10.995 1.8 9 1.8C7.005 1.8 5.30625 2.50125 3.90375 3.90375C2.50125 5.30625 1.8 7.005 1.8 9C1.8 10.995 2.50125 12.6938 3.90375 14.0963C5.30625 15.4988 7.005 16.2 9 16.2Z" fill="#42814A"/>
</svg>
