<svg width="19" height="18" viewBox="0 0 19 18" fill="none" xmlns="http://www.w3.org/2000/svg">
<g clip-path="url(#clip0_2531_81813)">
<path d="M18.3182 9C18.3182 13.6737 14.3506 17.5 9.40909 17.5C4.46756 17.5 0.5 13.6737 0.5 9C0.5 4.32629 4.46756 0.5 9.40909 0.5C14.3506 0.5 18.3182 4.32629 18.3182 9Z" fill="white" stroke="#282828"/>
<path d="M8.55556 9.88889V8.04444L7.84444 8.75556L7.22222 8.11111L9 6.33333L10.7778 8.11111L10.1556 8.75556L9.44444 8.04444V9.88889H8.55556ZM5.88889 13C5.64444 13 5.43519 12.913 5.26111 12.7389C5.08704 12.5648 5 12.3556 5 12.1111V5.88889C5 5.64444 5.08704 5.43519 5.26111 5.26111C5.43519 5.08704 5.64444 5 5.88889 5H12.1111C12.3556 5 12.5648 5.08704 12.7389 5.26111C12.913 5.43519 13 5.64444 13 5.88889V12.1111C13 12.3556 12.913 12.5648 12.7389 12.7389C12.5648 12.913 12.3556 13 12.1111 13H5.88889ZM5.88889 12.1111H12.1111V10.7778H10.7778C10.5556 11.0593 10.2907 11.2778 9.98333 11.4333C9.67593 11.5889 9.34815 11.6667 9 11.6667C8.65185 11.6667 8.32407 11.5889 8.01667 11.4333C7.70926 11.2778 7.44444 11.0593 7.22222 10.7778H5.88889V12.1111ZM9 10.7778C9.28148 10.7778 9.53704 10.6963 9.76667 10.5333C9.9963 10.3704 10.1556 10.1556 10.2444 9.88889H12.1111V5.88889H5.88889V9.88889H7.75556C7.84444 10.1556 8.0037 10.3704 8.23333 10.5333C8.46296 10.6963 8.71852 10.7778 9 10.7778Z" fill="#282828"/>
</g>
<defs>
<clipPath id="clip0_2531_81813">
<rect width="19" height="18" fill="white"/>
</clipPath>
</defs>
</svg>
