<svg width="18" height="18" viewBox="0 0 18 18" fill="none" xmlns="http://www.w3.org/2000/svg">
<g clip-path="url(#clip0_2481_54760)">
<circle cx="9" cy="9" r="9" fill="#42814A"/>
<g clip-path="url(#clip1_2481_54760)">
<path d="M6.92857 6.39866V10.5993C7.12344 10.7118 7.28616 10.8746 7.39866 11.0694H11.5993C11.5993 11.0674 11.6013 11.0654 11.6013 11.0634L11.5109 10.9047L10.8681 9.77969C10.84 9.7817 10.8118 9.7817 10.7837 9.7817C10.0746 9.7817 9.49799 9.20513 9.49799 8.49598C9.49799 7.78683 10.0746 7.21027 10.7837 7.21027C10.8118 7.21027 10.84 7.21027 10.8681 7.21228L11.5109 6.08728L11.6013 5.92857L11.5993 5.92254H7.39866C7.28616 6.11741 7.12344 6.28013 6.92857 6.39263V6.39866ZM12.7203 10.4286C13.4275 10.4326 14 11.0051 14 11.7143C14 12.4234 13.4234 13 12.7143 13C12.2382 13 11.8223 12.7408 11.6013 12.3571H7.40067C7.17768 12.7408 6.76384 13 6.28772 13C5.57857 13 5.00201 12.4234 5.00201 11.7143C5.00201 11.2382 5.26116 10.8223 5.64487 10.6013V6.40067C5.25915 6.17768 5 5.76183 5 5.28571C5 4.57656 5.57656 4 6.28571 4C6.76183 4 7.17768 4.25915 7.39866 4.64286H11.5993C11.8223 4.25915 12.2362 4 12.7123 4C13.4214 4 13.998 4.57656 13.998 5.28571C13.998 5.99487 13.4254 6.56741 12.7183 6.57143L12.6279 6.73013L11.985 7.85513L11.9388 7.93549C12.0232 8.10625 12.0694 8.2971 12.0694 8.5C12.0694 8.7029 12.0232 8.89375 11.9388 9.06451L11.985 9.14487L12.6279 10.2699L12.7183 10.4286H12.7203Z" fill="white"/>
</g>
</g>
<defs>
<clipPath id="clip0_2481_54760">
<rect width="18" height="18" fill="white"/>
</clipPath>
<clipPath id="clip1_2481_54760">
<rect width="9" height="9" fill="white" transform="translate(5 4)"/>
</clipPath>
</defs>
</svg>
