<svg width="18" height="18" viewBox="0 0 18 18" fill="none" xmlns="http://www.w3.org/2000/svg">
<g clip-path="url(#clip0_11539_8711)">
<circle cx="9" cy="9" r="9" fill="#F8BB47"/>
<path d="M7.40933 12.5C7.32297 12.5 7.242 12.4868 7.16644 12.4605C7.09087 12.4346 7.0207 12.3904 6.95592 12.3277L4.17068 9.63423C4.05193 9.51939 3.99514 9.37051 4.00032 9.18761C4.00594 9.00512 4.06812 8.85645 4.18687 8.74161C4.30562 8.62677 4.45676 8.56935 4.64028 8.56935C4.82381 8.56935 4.97494 8.62677 5.0937 8.74161L7.40933 10.981L12.8989 5.67226C13.0176 5.55742 13.1716 5.5 13.3607 5.5C13.5494 5.5 13.7031 5.55742 13.8219 5.67226C13.9406 5.7871 14 5.93576 14 6.11825C14 6.30116 13.9406 6.45004 13.8219 6.56488L7.86275 12.3277C7.79797 12.3904 7.7278 12.4346 7.65223 12.4605C7.57666 12.4868 7.4957 12.5 7.40933 12.5Z" fill="white"/>
</g>
<defs>
<clipPath id="clip0_11539_8711">
<rect width="18" height="18" fill="white"/>
</clipPath>
</defs>
</svg>
