<svg width="20" height="20" viewBox="0 0 20 20" fill="none" xmlns="http://www.w3.org/2000/svg">
<g id="20px/Arrow up">
<path id="Vector" d="M5.17799 8.91277L9.68806 4.18792C9.82229 4.05369 9.98336 4 10.1713 4C10.3324 4 10.4934 4.05369 10.6277 4.18792L15.1378 8.91277C15.3793 9.18122 15.3793 9.5839 15.1109 9.82552C14.8693 10.0671 14.4397 10.0671 14.1981 9.79867L10.8156 6.22819V15.3558C10.8156 15.7316 10.5203 16 10.1713 16C9.84913 16 9.52699 15.7316 9.52699 15.3558V6.22819L6.11758 9.79867C5.87597 10.0671 5.44644 10.0671 5.20483 9.82552C4.93637 9.5839 4.93637 9.15437 5.17799 8.91277Z" fill="white"/>
</g>
</svg>
