<svg width="18" height="16" viewBox="0 0 18 16" fill="none" xmlns="http://www.w3.org/2000/svg">
<path d="M17.8028 13.7499C18.3645 14.7499 17.6623 16 16.5037 16H1.51193C0.353317 16 -0.348874 14.7499 0.17777 13.7499L7.69122 0.75C8.00721 0.25 8.49874 0 9.02538 0C9.51692 0 10.0085 0.25 10.3244 0.75L17.8028 13.7499ZM1.86303 14.2857H16.1527L8.99028 1.89286L1.86303 14.2857ZM9.02538 10.9286C9.62225 10.9286 10.1138 11.4286 10.1138 12.0357C10.1138 12.6429 9.62225 13.1429 9.02538 13.1429C8.39341 13.1429 7.90188 12.6429 7.90188 12.0357C7.90188 11.4286 8.39341 10.9286 9.02538 10.9286ZM8.18276 5.42857C8.18276 4.96429 8.53385 4.57143 9.02538 4.57143C9.48181 4.57143 9.86802 4.96429 9.86802 5.42857V8.85714C9.86802 9.35714 9.48181 9.71429 9.02538 9.71429C8.53385 9.71429 8.18276 9.35714 8.18276 8.85714V5.42857Z" fill="#CE3E39"/>
</svg>
