<svg width="20" height="20" viewBox="0 0 20 20" fill="none" xmlns="http://www.w3.org/2000/svg">
<g id="20px/Exclamation triangle">
<path id="Vector" d="M17.836 15.0312C18.336 15.9062 17.711 17 16.6797 17H3.33596C2.30471 17 1.67971 15.9062 2.14846 15.0312L8.83596 3.65625C9.11721 3.21875 9.55471 3 10.0235 3C10.461 3 10.8985 3.21875 11.1797 3.65625L17.836 15.0312ZM3.64846 15.5H16.3673L9.99221 4.65625L3.64846 15.5ZM10.0235 12.5625C10.5547 12.5625 10.9922 13 10.9922 13.5312C10.9922 14.0625 10.5547 14.5 10.0235 14.5C9.46096 14.5 9.02346 14.0625 9.02346 13.5312C9.02346 13 9.46096 12.5625 10.0235 12.5625ZM9.27346 7.75C9.27346 7.34375 9.58596 7 10.0235 7C10.4297 7 10.7735 7.34375 10.7735 7.75V10.75C10.7735 11.1875 10.4297 11.5 10.0235 11.5C9.58596 11.5 9.27346 11.1875 9.27346 10.75V7.75Z" fill="#CE3E39"/>
</g>
</svg>
