<svg width="20" height="20" viewBox="0 0 20 20" fill="none" xmlns="http://www.w3.org/2000/svg">
<path d="M17.8379 15.0312C18.3379 15.9062 17.7129 17 16.6816 17H3.33791C2.30666 17 1.68166 15.9062 2.15041 15.0312L8.83791 3.65625C9.11916 3.21875 9.55666 3 10.0254 3C10.4629 3 10.9004 3.21875 11.1817 3.65625L17.8379 15.0312ZM3.65041 15.5H16.3692L9.99416 4.65625L3.65041 15.5ZM10.0254 12.5625C10.5567 12.5625 10.9942 13 10.9942 13.5312C10.9942 14.0625 10.5567 14.5 10.0254 14.5C9.46291 14.5 9.02541 14.0625 9.02541 13.5312C9.02541 13 9.46291 12.5625 10.0254 12.5625ZM9.27541 7.75C9.27541 7.34375 9.58791 7 10.0254 7C10.4317 7 10.7754 7.34375 10.7754 7.75V10.75C10.7754 11.1875 10.4317 11.5 10.0254 11.5C9.58791 11.5 9.27541 11.1875 9.27541 10.75V7.75Z" fill="#F8BB47"/>
</svg>
